<svg width="360" height="207" viewBox="0 0 360 207" fill="none" xmlns="http://www.w3.org/2000/svg">
<rect width="360" height="207" fill="white"/>
<g clip-path="url(#clip0_467_3)">
<path d="M127.277 97.544C126.886 97.544 126.57 97.2411 126.57 96.867L126.573 96.8417V85.3594L126.578 85.3118C126.602 85.141 126.686 84.9853 126.815 84.8742C126.943 84.763 127.107 84.7043 127.275 84.709C127.638 84.709 127.938 84.9763 127.976 85.3118L127.98 85.3594V96.8655C127.98 97.2396 127.663 97.5425 127.276 97.5425L127.277 97.544ZM128.592 82.599H125.956C123.727 82.599 123.595 84.4521 123.595 85.6459V96.6041C123.595 97.8009 123.727 99.6525 125.956 99.6525H128.592C130.82 99.6525 130.958 97.8009 130.958 96.6041V85.6459C130.958 84.4521 130.82 82.599 128.592 82.599Z" fill="#2378D9"/>
<path d="M78.9865 82.599H85.0581V84.7164H82.1694V99.651H78.9865V82.599Z" fill="#2378D9"/>
<path d="M85.5299 99.651H88.6378L88.9364 95.1193H90.4385L90.7328 99.651H93.8494L92.1872 82.6005H87.1877L85.5299 99.651ZM89.0504 93.2454L89.5987 84.7149H89.7762L90.3216 93.2454H89.0504Z" fill="#2378D9"/>
<path d="M98.4045 93.6819V96.8892C98.4045 97.3302 98.719 97.4534 98.9037 97.4534C99.1981 97.4534 99.4029 97.1832 99.4029 96.8892V92.9247C99.4029 92.3901 99.3135 91.8081 98.1275 91.8081H96.8375V89.9312H98.1736C99.0841 89.9312 99.4029 89.7085 99.4029 88.6676V85.2747C99.4029 84.9837 99.1981 84.7179 98.9037 84.7179C98.719 84.7179 98.4045 84.8367 98.4045 85.2747V88.0558H95.2201V85.6474C95.2201 84.4521 95.36 82.599 97.5835 82.599H100.224C102.452 82.599 102.586 84.4521 102.586 85.6474V88.3766C102.586 90.2237 101.381 90.7345 100.424 90.687V90.8592C102.56 90.8058 102.586 92.5624 102.586 93.1726V96.6026C102.586 97.7994 102.452 99.6525 100.224 99.6525H97.5835C95.3615 99.6525 95.2201 97.7994 95.2201 96.6026V93.6819H98.4045Z" fill="#2378D9"/>
<path d="M104.681 82.599H112.045V99.651H109.076V84.7164H107.647V99.651H104.681V82.599Z" fill="#2378D9"/>
<path d="M114.351 99.6525H117.532V93.8557H119.35C121.58 93.8557 121.933 92.0056 121.933 90.8058V85.6474C121.933 84.4521 121.578 82.6005 119.35 82.6005H114.351V99.6525ZM117.531 91.9758V84.7179H118.368C118.714 84.7179 118.964 85.0342 118.964 85.5672V91.1265C118.964 91.664 118.714 91.9758 118.368 91.9758H117.531Z" fill="#2378D9"/>
<path d="M141.113 82.599H145.254V99.651H142.07V88.9572H141.954L140.317 99.651H137.774L136.135 88.9572H136.024V99.651H132.841V82.599H136.972L139.04 94.5833L141.113 82.599Z" fill="#2378D9"/>
<path d="M71.7059 88.975C71.7982 87.0981 71.576 84.4462 71.1561 82.3763C70.7377 80.3049 69.5459 76.8527 68.598 75.252C67.7236 76.7725 66.6429 79.763 66.0773 82.36C65.5088 84.954 65.4915 88.0945 65.4915 89.0388C65.34 88.2385 64.962 85.4113 65.0702 82.5664C65.1611 80.2203 65.6949 77.8089 65.9864 76.6982C67.0974 72.9935 68.3628 70.6267 68.598 70.2481C68.8346 70.6267 70.426 73.5415 71.2499 76.6047C72.068 79.6709 72.2311 82.605 72.1979 84.3318C72.1618 86.0617 71.9598 87.8851 71.7059 88.975ZM67.2821 91.9699C67.2619 89.2423 68.3209 86.908 68.634 86.418C68.9111 86.908 69.8201 88.9423 69.9297 91.7234C69.9822 93.7533 69.5303 95.7635 68.6167 97.5633C68.1247 96.6071 67.3528 94.7837 67.2821 91.9699ZM68.6167 67.8278C68.067 68.6712 66.0571 71.9259 65.0355 75.5341C64.0151 79.1389 63.7104 82.9182 64.1395 86.6467C64.5233 90.1614 65.969 93.7696 65.969 93.7696C66.7338 95.6672 67.8866 97.694 68.634 98.6918C69.7277 97.2248 72.2542 92.8504 73.0376 87.1352C73.4748 83.9577 73.4921 81.1721 72.4893 76.6433C71.4851 72.1116 68.9616 68.4262 68.6167 67.8278Z" fill="#2378D9"/>
<path d="M62.4441 99.6495V105.01C62.8768 104.561 63.3914 104.204 63.9583 103.959C64.5253 103.715 65.1335 103.588 65.7481 103.586C66.3628 103.584 66.9718 103.707 67.5402 103.947C68.1087 104.188 68.6256 104.541 69.0611 104.988C69.4946 105.43 69.8386 105.957 70.0734 106.537C70.3082 107.117 70.4291 107.739 70.4291 108.368C70.4291 108.996 70.3082 109.619 70.0734 110.199C69.8386 110.779 69.4946 111.305 69.0611 111.748L69.0409 111.772C67.2899 113.568 64.9177 114.574 62.4456 114.571C59.9776 114.572 57.6097 113.566 55.8604 111.775C54.9957 110.89 54.3094 109.838 53.8412 108.679C53.3729 107.521 53.1318 106.278 53.1318 105.023C53.1318 103.768 53.3729 102.526 53.8412 101.367C54.3094 100.208 54.9957 99.1564 55.8604 98.2716C56.7259 97.3835 57.7529 96.6796 58.8828 96.2001C60.0128 95.7206 61.2234 95.4749 62.4456 95.4771V82.6911C53.2863 82.6911 45.8527 90.3069 45.8527 99.6911C45.8527 109.084 53.2863 116.699 62.4456 116.699C67.2272 116.699 71.5298 114.624 74.5569 111.314V99.6495H62.4441Z" fill="#2378D9"/>
<path d="M142.279 111.91C142.279 110.43 141.669 110.033 140.018 110.033H139.737V107.176H138.057V114.58H139.737C141.563 114.58 142.279 114.29 142.279 112.67V111.91ZM128.262 107.169H124.028V108.575H125.392V114.586H126.99V108.575H128.262V107.169ZM115.338 109.625C115.338 108.115 114.621 107.73 112.943 107.73V107.176H111.308V107.73C109.62 107.73 108.898 108.116 108.898 109.625V111.941C108.898 113.442 109.649 113.846 111.308 113.846V114.58H112.941V113.846C114.596 113.846 115.338 113.442 115.338 111.94V109.625ZM100.111 107.169H96.08V114.586H100.111V113.179H97.8144V111.435H99.869V110.032H97.8144V108.576H100.111V107.169ZM86.1792 107.176H84.4982V110.033H83.6369V107.176H81.9559V114.58H83.6369V111.34H84.4982V114.58H86.1792V107.176ZM110.53 109.582C110.53 109.145 110.666 109.034 111.037 109.034H111.308V112.483H111.037C110.666 112.483 110.532 112.384 110.532 111.95L110.53 109.582ZM78.9937 116.703V105.329H145.264V116.703H78.9937ZM140.11 111.34C140.487 111.34 140.601 111.435 140.601 111.859V112.75C140.601 113.174 140.487 113.272 140.11 113.272H139.737V111.341L140.11 111.34ZM113.201 109.034C113.573 109.034 113.709 109.123 113.709 109.559V111.94C113.709 112.375 113.573 112.483 113.2 112.483H112.941V109.034H113.201Z" fill="#2378D9"/>
</g>
<line x1="164.5" y1="69" x2="164.5" y2="135" stroke="#2378D9"/>
<path d="M187.805 95H186.185V85.775H183.11V89.15C183.11 91.32 182.85 92.84 182.33 93.71C181.82 94.57 181.005 95 179.885 95H179.21V93.545H179.495C179.815 93.545 180.09 93.485 180.32 93.365C180.55 93.235 180.76 93.01 180.95 92.69C181.15 92.37 181.295 91.9 181.385 91.28C181.485 90.65 181.535 89.865 181.535 88.925V84.32H187.805V95ZM198.48 95H196.86V87.245L192.075 95H190.605V84.32H192.225V92.06L196.995 84.32H198.48V95ZM208.184 95H206.564V90.815C205.384 91.045 204.429 91.16 203.699 91.16C202.919 91.16 202.259 90.945 201.719 90.515C201.189 90.075 200.924 89.415 200.924 88.535V84.32H202.559V88.145C202.559 89.185 203.104 89.705 204.194 89.705C204.854 89.705 205.644 89.605 206.564 89.405V84.32H208.184V95ZM218.556 95H216.921V90.335H212.601V95H210.981V84.32H212.601V88.895H216.921V84.32H218.556V95ZM231.732 95H230.112V84.32H231.732V95ZM227.892 89.42C228.512 90.02 228.822 90.8 228.822 91.76C228.822 92.72 228.507 93.5 227.877 94.1C227.257 94.7 226.442 95 225.432 95H221.337V84.32H222.957V88.52H225.432C226.452 88.52 227.272 88.82 227.892 89.42ZM227.187 91.76C227.187 91.21 227.017 90.775 226.677 90.455C226.347 90.135 225.887 89.975 225.297 89.975H222.957V93.545H225.297C225.887 93.545 226.347 93.39 226.677 93.08C227.017 92.76 227.187 92.32 227.187 91.76ZM240.776 81.68C240.736 82.38 240.506 82.89 240.086 83.21C239.666 83.53 239.126 83.69 238.466 83.69C237.806 83.69 237.266 83.53 236.846 83.21C236.426 82.89 236.196 82.38 236.156 81.68H237.371C237.431 82.36 237.796 82.7 238.466 82.7C239.136 82.7 239.501 82.36 239.561 81.68H240.776ZM242.396 95H240.776V87.245L235.991 95H234.521V84.32H236.141V92.06L240.911 84.32H242.396V95ZM250.454 95H248.834V84.32H250.454V89.39L254.444 84.32H256.439L252.329 89.36L256.814 95H254.759L250.454 89.42V95ZM265.994 95H264.299L263.549 92.855H259.334L258.584 95H256.874L260.789 84.32H262.094L265.994 95ZM263.114 91.475L261.479 86.735L259.799 91.475H263.114ZM274.139 89.42C274.749 90.01 275.054 90.79 275.054 91.76C275.054 92.73 274.749 93.515 274.139 94.115C273.529 94.705 272.709 95 271.679 95H267.524V84.32H274.394V85.775H269.144V88.52H271.679C272.709 88.52 273.529 88.82 274.139 89.42ZM273.434 91.76C273.434 91.21 273.269 90.775 272.939 90.455C272.609 90.135 272.154 89.975 271.574 89.975H269.144V93.545H271.574C272.154 93.545 272.609 93.39 272.939 93.08C273.269 92.76 273.434 92.32 273.434 91.76ZM285.228 95H283.608V87.245L278.823 95H277.353V84.32H278.973V92.06L283.743 84.32H285.228V95ZM295.592 95H293.957V90.335H289.637V95H288.017V84.32H289.637V88.895H293.957V84.32H295.592V95ZM305.214 95H298.374V84.32H305.214V85.775H299.994V88.895H304.434V90.335H299.994V93.545H305.214V95ZM313.967 85.775H311.027V95H309.407V85.775H306.467V84.32H313.967V85.775ZM182.06 116H180.44V105.32H182.06V110.39L186.05 105.32H188.045L183.935 110.36L188.42 116H186.365L182.06 110.42V116ZM196.767 109.91V110.81C196.767 111.55 196.752 112.11 196.722 112.49C196.702 112.86 196.612 113.28 196.452 113.75C196.292 114.22 196.052 114.62 195.732 114.95C194.992 115.71 194.052 116.09 192.912 116.09C191.782 116.09 190.847 115.71 190.107 114.95C189.787 114.63 189.547 114.23 189.387 113.75C189.227 113.26 189.132 112.83 189.102 112.46C189.082 112.08 189.072 111.55 189.072 110.87V110.165C189.072 109.195 189.137 108.425 189.267 107.855C189.407 107.285 189.687 106.79 190.107 106.37C190.867 105.61 191.802 105.23 192.912 105.23C194.032 105.23 194.972 105.61 195.732 106.37C196.422 107.07 196.767 108.25 196.767 109.91ZM195.132 110.555C195.132 109.615 195.097 108.92 195.027 108.47C194.957 108.01 194.782 107.635 194.502 107.345C194.082 106.905 193.552 106.685 192.912 106.685C192.272 106.685 191.742 106.905 191.322 107.345C191.132 107.545 190.987 107.815 190.887 108.155C190.797 108.485 190.742 108.8 190.722 109.1C190.712 109.39 190.707 109.82 190.707 110.39V111.305C190.707 111.975 190.742 112.525 190.812 112.955C190.892 113.375 191.062 113.715 191.322 113.975C191.762 114.415 192.292 114.635 192.912 114.635C193.562 114.635 194.092 114.415 194.502 113.975C194.702 113.765 194.847 113.49 194.937 113.15C195.037 112.81 195.092 112.48 195.102 112.16C195.122 111.83 195.132 111.295 195.132 110.555ZM206.749 116H205.114V111.335H200.794V116H199.174V105.32H200.794V109.895H205.114V105.32H206.749V116ZM216.086 106.775H213.146V116H211.526V106.775H208.586V105.32H216.086V106.775ZM224.434 106.22C225.074 106.82 225.394 107.6 225.394 108.56C225.394 109.52 225.074 110.3 224.434 110.9C223.804 111.5 222.984 111.8 221.974 111.8H219.544V116H217.924V105.32H221.974C222.984 105.32 223.804 105.62 224.434 106.22ZM223.249 109.865C223.599 109.545 223.774 109.11 223.774 108.56C223.774 108.01 223.604 107.575 223.264 107.255C222.924 106.935 222.459 106.775 221.869 106.775H219.544V110.345H221.869C222.449 110.345 222.909 110.185 223.249 109.865ZM234.456 116H232.761L232.011 113.855H227.796L227.046 116H225.336L229.251 105.32H230.556L234.456 116ZM231.576 112.475L229.941 107.735L228.261 112.475H231.576ZM242.631 106.775H237.681V116H236.061V105.32H242.631V106.775ZM251.307 116H244.467V105.32H251.307V106.775H246.087V109.895H250.527V111.335H246.087V114.545H251.307V116ZM261.08 116H259.445V111.335H255.125V116H253.505V105.32H255.125V109.895H259.445V105.32H261.08V116ZM270.417 106.775H267.477V116H265.857V106.775H262.917V105.32H270.417V106.775ZM279.207 116H277.512L276.762 113.855H272.547L271.797 116H270.087L274.002 105.32H275.307L279.207 116ZM276.327 112.475L274.692 107.735L273.012 112.475H276.327Z" fill="#2378D9"/>
<defs>
<clipPath id="clip0_467_3">
<rect width="101" height="49" fill="white" transform="translate(45 68)"/>
</clipPath>
</defs>
</svg>
