<svg width="101" height="49" viewBox="0 0 101 49" fill="none" xmlns="http://www.w3.org/2000/svg">
<g clip-path="url(#clip0_467_22)">
<path d="M82.2775 29.544C81.8865 29.544 81.5705 29.2411 81.5705 28.867L81.5734 28.8417V17.3594L81.5777 17.3118C81.602 17.141 81.6864 16.9853 81.8148 16.8742C81.9433 16.763 82.1069 16.7043 82.2746 16.709C82.6382 16.709 82.9383 16.9763 82.9758 17.3118L82.9801 17.3594V28.8655C82.9801 29.2396 82.6627 29.5425 82.2761 29.5425L82.2775 29.544ZM83.5919 14.599H80.9558C78.7266 14.599 78.5953 16.4521 78.5953 17.6459V28.6041C78.5953 29.8009 78.7266 31.6525 80.9558 31.6525H83.5919C85.8197 31.6525 85.9582 29.8009 85.9582 28.6041V17.6459C85.9582 16.4521 85.8197 14.599 83.5919 14.599Z" fill="#2378D9"/>
<path d="M33.9865 14.599H40.0581V16.7164H37.1694V31.651H33.9865V14.599Z" fill="#2378D9"/>
<path d="M40.5299 31.651H43.6378L43.9364 27.1193H45.4385L45.7328 31.651H48.8494L47.1872 14.6005H42.1877L40.5299 31.651ZM44.0504 25.2454L44.5987 16.7149H44.7762L45.3216 25.2454H44.0504Z" fill="#2378D9"/>
<path d="M53.4045 25.6819V28.8892C53.4045 29.3302 53.719 29.4534 53.9037 29.4534C54.1981 29.4534 54.4029 29.1832 54.4029 28.8892V24.9247C54.4029 24.3901 54.3135 23.8081 53.1275 23.8081H51.8375V21.9312H53.1736C54.0841 21.9312 54.4029 21.7085 54.4029 20.6676V17.2747C54.4029 16.9837 54.1981 16.7179 53.9037 16.7179C53.719 16.7179 53.4045 16.8367 53.4045 17.2747V20.0558H50.2201V17.6474C50.2201 16.4521 50.36 14.599 52.5835 14.599H55.2239C57.4517 14.599 57.5859 16.4521 57.5859 17.6474V20.3766C57.5859 22.2237 56.3811 22.7345 55.4245 22.687V22.8592C57.5599 22.8058 57.5859 24.5624 57.5859 25.1726V28.6026C57.5859 29.7994 57.4517 31.6525 55.2239 31.6525H52.5835C50.3615 31.6525 50.2201 29.7994 50.2201 28.6026V25.6819H53.4045Z" fill="#2378D9"/>
<path d="M59.6809 14.599H67.0453V31.651H64.0758V16.7164H62.6474V31.651H59.6809V14.599Z" fill="#2378D9"/>
<path d="M69.3509 31.6525H72.5324V25.8557H74.3504C76.5796 25.8557 76.9332 24.0056 76.9332 22.8058V17.6474C76.9332 16.4521 76.5782 14.6005 74.3504 14.6005H69.3509V31.6525ZM72.531 23.9758V16.7179H73.3678C73.7141 16.7179 73.9637 17.0342 73.9637 17.5672V23.1265C73.9637 23.664 73.7141 23.9758 73.3678 23.9758H72.531Z" fill="#2378D9"/>
<path d="M96.1131 14.599H100.254V31.651H97.0697V20.9572H96.9543L95.3166 31.651H92.7743L91.1352 20.9572H91.0241V31.651H87.8412V14.599H91.9721L94.0397 26.5833L96.1131 14.599Z" fill="#2378D9"/>
<path d="M26.7059 20.975C26.7982 19.0981 26.576 16.4462 26.1561 14.3763C25.7377 12.3049 24.5459 8.85267 23.598 7.252C22.7236 8.77249 21.6429 11.763 21.0773 14.36C20.5088 16.954 20.4915 20.0945 20.4915 21.0388C20.34 20.2385 19.962 17.4113 20.0702 14.5664C20.1611 12.2203 20.6949 9.80891 20.9864 8.69824C22.0974 4.99355 23.3628 2.62671 23.598 2.24807C23.8346 2.62671 25.426 5.54147 26.2499 8.60472C27.068 11.6709 27.2311 14.605 27.1979 16.3318C27.1618 18.0617 26.9598 19.8851 26.7059 20.975ZM22.2821 23.9699C22.2619 21.2423 23.3209 18.908 23.634 18.418C23.9111 18.908 24.8201 20.9423 24.9297 23.7234C24.9822 25.7533 24.5303 27.7635 23.6167 29.5633C23.1247 28.6071 22.3528 26.7837 22.2821 23.9699ZM23.6167 -0.172241C23.067 0.671153 21.0571 3.92594 20.0355 7.53413C19.0151 11.1389 18.7104 14.9182 19.1395 18.6467C19.5233 22.1614 20.969 25.7696 20.969 25.7696C21.7338 27.6672 22.8866 29.694 23.634 30.6918C24.7277 29.2248 27.2542 24.8504 28.0376 19.1352C28.4748 15.9577 28.4921 13.1721 27.4893 8.64332C26.4851 4.11156 23.9616 0.426153 23.6167 -0.172241Z" fill="#2378D9"/>
<path d="M17.4441 31.6495V37.0098C17.8768 36.5606 18.3914 36.2036 18.9583 35.9593C19.5253 35.7149 20.1335 35.5881 20.7481 35.5861C21.3628 35.584 21.9718 35.7067 22.5402 35.9472C23.1087 36.1877 23.6256 36.5412 24.0611 36.9876C24.4946 37.4302 24.8386 37.9568 25.0734 38.5369C25.3082 39.1171 25.4291 39.7394 25.4291 40.3678C25.4291 40.9963 25.3082 41.6185 25.0734 42.1987C24.8386 42.7788 24.4946 43.3054 24.0611 43.7481L24.0409 43.7718C22.2899 45.5677 19.9177 46.5745 17.4456 46.5708C14.9776 46.5719 12.6097 45.5665 10.8604 43.7748C9.99566 42.89 9.30943 41.838 8.84116 40.6793C8.37289 39.5207 8.13179 38.2781 8.13179 37.0232C8.13179 35.7683 8.37289 34.5258 8.84116 33.3671C9.30943 32.2084 9.99566 31.1564 10.8604 30.2716C11.7259 29.3835 12.7529 28.6796 13.8828 28.2001C15.0128 27.7206 16.2234 27.4749 17.4456 27.4771V14.6911C8.28634 14.6911 0.852737 22.3069 0.852737 31.6911C0.852737 41.0842 8.28634 48.6986 17.4456 48.6986C22.2272 48.6986 26.5298 46.6242 29.5569 43.3145V31.6495H17.4441Z" fill="#2378D9"/>
<path d="M97.2789 43.9099C97.2789 42.4295 96.6686 42.0331 95.0179 42.0331H94.7366V39.1762H93.0571V46.5797H94.7366C96.5632 46.5797 97.2789 46.2902 97.2789 44.6702V43.9099ZM83.2615 39.1688H79.0282V40.575H80.3917V46.5856H81.9904V40.575H83.2615V39.1688ZM70.3378 41.6247C70.3378 40.1147 69.6207 39.7301 67.9427 39.7301V39.1762H66.3079V39.7301C64.6198 39.7301 63.8984 40.1161 63.8984 41.6247V43.9411C63.8984 45.4423 64.6487 45.8462 66.3079 45.8462V46.5797H67.9413V45.8462C69.5962 45.8462 70.3378 45.4423 70.3378 43.9397V41.6247ZM55.1114 39.1688H51.08V46.5856H55.1114V45.1795H52.8144V43.4348H54.869V42.0316H52.8144V40.5764H55.1114V39.1688ZM41.1792 39.1762H39.4982V42.0331H38.6369V39.1762H36.9559V46.5797H38.6369V43.3397H39.4982V46.5797H41.1792V39.1762ZM65.5302 41.5817C65.5302 41.1451 65.6659 41.0338 66.0367 41.0338H66.3079V44.4831H66.0367C65.6659 44.4831 65.5317 44.3836 65.5317 43.95L65.5302 41.5817ZM33.9937 48.703V37.3291H100.264V48.703H33.9937ZM95.1103 43.3397C95.4868 43.3397 95.6008 43.4348 95.6008 43.8594V44.7504C95.6008 45.1735 95.4868 45.2716 95.1103 45.2716H94.7366V43.3412L95.1103 43.3397ZM68.201 41.0338C68.5732 41.0338 68.7089 41.1229 68.7089 41.5594V43.9397C68.7089 44.3747 68.5732 44.4831 68.1995 44.4831H67.9413V41.0338H68.201Z" fill="#2378D9"/>
</g>
<defs>
<clipPath id="clip0_467_22">
<rect width="101" height="49" fill="white"/>
</clipPath>
</defs>
</svg>
